<?xml version="1.0" standalone="no"?><!DOCTYPE svg PUBLIC "-//W3C//DTD SVG 1.1//EN" "http://www.w3.org/Graphics/SVG/1.1/DTD/svg11.dtd"><svg t="1726404365980" class="icon" viewBox="0 0 1024 1024" version="1.1" xmlns="http://www.w3.org/2000/svg" p-id="4310" xmlns:xlink="http://www.w3.org/1999/xlink" width="200" height="200"><path d="M877.827413 0A146.204444 146.204444 0 1 0 1024.031858 146.204444 146.204444 146.204444 0 0 0 877.827413 0z m0 219.591111a73.386667 73.386667 0 1 1 0-146.204444 73.386667 73.386667 0 0 1 0 146.204444zM146.236302 731.591111a146.204444 146.204444 0 1 0 146.204445 146.204445 146.204444 146.204444 0 0 0-146.204445-146.204445z m0 219.022222a73.386667 73.386667 0 0 1 0-146.204444 73.386667 73.386667 0 1 1 0 146.204444zM715.125191 387.982222l-125.724444-122.311111a44.942222 44.942222 0 0 1-13.084445-39.822222l29.582222-170.666667A45.511111 45.511111 0 0 0 540.476302 5.12L385.169636 87.04a44.942222 44.942222 0 0 1-41.528889 0L187.765191 5.12a44.942222 44.942222 0 0 0-64.853333 47.786667l29.582222 170.666666a44.942222 44.942222 0 0 1-13.084444 39.822223L13.685191 387.982222a44.942222 44.942222 0 0 0 25.031111 76.8l173.511111 25.6a44.942222 44.942222 0 0 1 34.133334 24.462222l77.368889 157.582223a45.511111 45.511111 0 0 0 80.782222 0l77.937778-157.582223a43.804444 43.804444 0 0 1 33.564444-24.462222l174.08-25.6a44.942222 44.942222 0 0 0 25.031111-76.8z m-209.351111 29.582222a118.328889 118.328889 0 0 0-88.746667 64.853334l-52.906666 106.382222-52.337778-106.382222a118.897778 118.897778 0 0 0-88.746667-64.853334L105.845191 398.222222l84.764445-80.213333A118.897778 118.897778 0 0 0 227.587413 213.333333l-20.48-113.777777 105.244445 56.888888a121.173333 121.173333 0 0 0 56.888889 13.653334 123.448889 123.448889 0 0 0 56.888889-13.653334l104.675555-56.888888-26.737778 113.777777a118.897778 118.897778 0 0 0 34.133334 104.675556L625.809636 398.222222z" p-id="4311"></path><path d="M530.532695 576.219072m24.940442-24.940442l0 0q24.940442-24.940442 49.880884 0l400.65613 400.65613q24.940442 24.940442 0 49.880884l0 0q-24.940442 24.940442-49.880884 0l-400.65613-400.65613q-24.940442-24.940442 0-49.880884Z" p-id="4312"></path></svg>