<?xml version="1.0" standalone="no"?><!DOCTYPE svg PUBLIC "-//W3C//DTD SVG 1.1//EN" "http://www.w3.org/Graphics/SVG/1.1/DTD/svg11.dtd"><svg t="1726222483979" class="icon" viewBox="0 0 1024 1024" version="1.1" xmlns="http://www.w3.org/2000/svg" p-id="8522" xmlns:xlink="http://www.w3.org/1999/xlink" width="200" height="200"><path d="M784.1402769559704 493.71901468570866c4.9173204536888875-4.968984181570369 8.385407901392593-11.416342720158024 9.535255630380247-18.7181392377679 2.2679015980246913-14.57444909511111-4.817967230419753-28.81507042797037-17.810713218212346-35.52207321315555l-214.73798389759997-110.87549676152098 37.31837840244939-241.2719070119506c2.229484880276543-14.569150549965432-3.8164865327407402-27.666548306172835-16.819830905362963-34.33910731156543-13.003344372622221-6.656663369955555-26.26103185761975-1.5843517326222218-36.56594356653827 8.841108674686419l-165.19651558589626 167.12529217106172-221.76291622052346-107.46834581933828c-13.008642917767899-6.701702945501233-30.99554150020741-6.390396265560494-41.32827283658272 4.052285384375309l0.6199634400395062 0.6504316927999999c-10.310210254064199 10.437383104790122-11.566034064118517 27.694366639091356-4.939840241461727 40.86065066034568l106.62185630530371 227.21276958846423L53.79639100807907 558.8721795881086c-10.292989011437037 10.425460407308641-15.321584091338268 23.85138608608395-8.72850844128395 37.00574740985678 6.582478559762963 13.15436132377284 18.27965970710123 18.004121119604935 32.68322198313086 15.75741370216296l239.1682680806716-37.20975240154074 110.26745601896297 218.11731650686417c6.636792207486419 13.137140081145677 20.890661845017284 20.456156546844444 35.294222826508644 18.140565453432096 7.201117687150616-1.148522121797531 13.633904902953084-4.58481829862716 18.551225356641975-9.571022428286419 4.912020614004938-4.96368434188642 8.324471395871605-11.456083750558022 9.458422194883951-18.740659025540737l37.844287164365426-240.53139357898272 237.27658390060245-38.61924308258765C772.7901692864791 502.05673438625195 779.234879199763 498.6893231799309 784.1402769559704 493.71901468570866zM627.7663231949432 565.0598951746373l-35.243883411279015 7.3574344779851835c-18.147189605767903 2.229484880276543-35.13923164286419 17.007938967071606-38.04829345058765 35.47173379792593l-4.729211097441976 30.049700057441974L847.6031127501432 979.8925301987554c16.45023634520494 18.887701744197525 43.169617601422225 24.3839190003358 65.39426100464198 13.30140404242963 12.158179171239507-6.061868342992592 24.7402665503605-13.844534046972838 34.04502187425185-23.28043645408395 12.344962920296295-12.525123811555552 22.73200660985679-29.013776874508636 30.73589854814815-44.23335911727408 12.31317035488395-23.420856314943208 6.544063136553085-52.5194150899358-13.339819465639506-69.65320130054322L627.7663231949432 565.0598951746373zM848.6774513562865 213.68082316705187c0.2159276891654321-1.3697496506469136 0.03311817260246913-2.7898374219851854-0.6080420370962963-4.0814280299456795-1.28894198265679-2.564636955180247-4.009894434133334-3.9675034838913574-6.814303178903703-3.491932842666666l-46.35024505868642 7.895265937382716-21.338412858785183-42.434404008138266c-1.2942405278024691-2.5580128028444444-3.727731694301234-3.9105412108641975-6.5268418939259245-3.4243734793481484-2.7991101996246917 0.4861677315160494-4.319876801422223 2.8520982401580244-4.7676278151901235 5.710820632651851l-7.1785978993777775 45.85877748748642-47.07486026714074 9.265015588029629c-2.80440874477037 0.48086918637037035-5.603518944395063 2.654717400809877-6.056569797846914 5.518738338449382l0.17088681908148148 0.03444248525432099c-0.4424524686222222 2.858722392493827 1.3048389126320985 5.728041875279011 3.8323834627160487 7.018308170587654l42.43970384782222 23.21155148357531-7.477981881837037 45.47328729189135c-0.44775101376790116 2.858722392493827 0.2768641946864197 5.569076459140741 2.7991101996246917 6.8606683616395046 2.522246004938271 1.295564840454321 4.912020614004938 0.679575632908642 6.930877644799999-1.3750481957925924l33.49659332456296-34.12450522959013 41.98665299437037 21.35033555626667c2.5275445500839506 1.2849677501629628 5.59689608659753 0.7524348359111113 7.605154732562963-1.3127860830814817 1.0067792428246913-1.0306233432493825 1.6320412280098762-2.3314880233876543 1.8479689171753084-3.7012376740345676 0.21062914401975305-1.357826953165432 0.017221242627160495-2.7845388768395063-0.6252632797234567-4.069506627002469l-21.17282458484938-42.37744173511111 33.036918318775314-34.11920538990617C847.8309618422519 216.33554056786176 848.4668222122668 215.03997572740747 848.6774513562865 213.68082316705187zM435.28477526597527 59.62511041927894c0.17751097141728392-1.1551462741333332 0.027818332918518516-2.3606319634962962-0.5192859041185185-3.4535161249185187-1.0902355361185183-2.1738469199012345-3.396553851891358-3.3621113666370372-5.774407058014814-2.9607242410666665l-39.27099908803951 6.689780248019754-18.080953260562964-35.95260298429629c-1.0955340812641974-2.1685483747555554-3.1528078298074074-3.3117719514074078-5.525361196246912-2.898463422893827-2.372553366439506 0.4133098230518518-3.6614953490962967 2.4175942365234566-4.037712767051852 4.839162705540741l-6.084388130765432 38.851066407190125-39.884339670281484 7.850226361837036c-2.3778532061234565 0.4066856707160494-4.751730885214815 2.2467061229037038-5.13324814285432 4.67489874425679l0.14969263849876543 0.027818332918518516c-0.38151596310123453 2.421568469017284 1.1008326264098764 4.85108410848395 3.241562668246914 5.949268109590124l35.957901529441976 19.66795491302716-6.333433992533331 38.52253848462222c-0.37621741795555563 2.421568469017284 0.2318246191407407 4.71463977465679 2.372553366439506 5.812823775762964 2.135431496691358 1.0981840011061728 4.159585778093827 0.576248177145679 5.8684604416-1.1657433644246913l28.379242111683947-28.911775025935803 35.57638556634074 18.088901725550613c2.140730041837037 1.0862613036246913 4.739809482271605 0.639834602508642 6.443384306093827-1.115405243733333 0.8517880591802469-0.871657927111111 1.382996660780247-1.9751417679012346 1.56580617734321-3.1302880420345676 0.17751097141728392-1.1538219614814813 0.017221242627160495-2.365930508641975-0.5312086015999999-3.452191812266667l-17.937884774399997-35.90226486360494 27.98712776375308-28.911775025935803C434.5654573081284 61.8771163818667 435.10196445487406 60.78025669341241 435.28477526597527 59.62511041927894zM97.12099979314564 300.7618974100544c-0.536507146745679-0.6967968755358024-1.2717207400296293-1.2333040222814815-2.140730041837037-1.4889727418469136-1.7419928361086416-0.4980904289975308-3.5780390558024693 0.19870644653827157-4.58481829862716 1.7605383913876544l-16.60920176134321 25.786785529046913-28.849512913224686-8.246313647723456c-1.7419928361086416-0.49279188385185185-3.4243734793481484 0.09008044562962962-4.424528569837037 1.6532367031308643-0.9961808579950616 1.5618319448493825-0.5696253193481482 3.322370336237037 0.5471042370370369 4.788823290311111l17.97100294700247 23.48974128545185-16.293920848908638 26.732628266350616c-1.0067792428246913 1.5618319448493825-1.2280054771358024 3.8602017956345676-0.1046517684148148 5.331953294854321l0.08875613297777776-0.07418351565432099c1.1233537087209877 1.466452954074074 3.208445790182716 1.8731386247901234 4.906722068859258 1.2227069319901234l29.220431786034563-10.318158719051851 17.66102057971358 23.46059734534321c1.1167295563851851 1.466452954074074 2.6825357337283946 2.298369850785185 4.38081330694321 1.6466138453333332 1.6982775732148148-0.6504316927999999 2.456010954271605-2.071845071328395 2.389774609066666-3.939685150972839l-1.073014293491358-31.04588091543703 28.158015877372836-10.912952451476542c1.6982775732148148-0.6570558451358025 2.793811654479012-2.365930508641975 2.7209524514765433-4.239069133432099-0.038416717748148144-0.9339200398222223-0.36562032766419755-1.8055779669333332-0.9021274744098766-2.502374842469136-0.5312086015999999-0.7020954206814813-1.2717207400296293-1.2280054771358024-2.146028586982716-1.4823498840493827l-28.750159689955552-8.297977375604937-1.2717207400296293-30.824654681125928C97.97278785232595 302.3290279000494 97.65750693989139 301.45736867840003 97.12099979314564 300.7618974100544z" p-id="8523"></path></svg>